<?xml version="1.0" encoding="utf-8"?>
<!-- Generator: Adobe Illustrator 24.0.0, SVG Export Plug-In . SVG Version: 6.00 Build 0)  -->
<svg version="1.1" id="Layer_1" xmlns="http://www.w3.org/2000/svg" xmlns:xlink="http://www.w3.org/1999/xlink" x="0px" y="0px"
	 viewBox="0 0 199 175" style="enable-background:new 0 0 199 175;" xml:space="preserve">
<style type="text/css">
	.st0{fill:url(#SVGID_10_);}
	.st1{fill:url(#SVGID_11_);}
	.st2{opacity:0.35;}
	.st3{clip-path:url(#SVGID_15_);fill:#FFFFFF;}
	.st4{fill:url(#SVGID_16_);}
</style>
<g>
	<g>
		<g>
			<g>
				<defs>
					<path id="SVGID_1_" d="M132.7,83.8c17.4-11.2,37.4,17.8,8.7,51.8c-16.9,20.1-59.6,27.5-80.1-5.9c1.6,3.4,15,29.4,47.7,34.7
						c24,3.9,42.7-6.2,51.6-15.4c12.5-12.9,19.4-28.7,20.6-44.1c0.6-7.7-1.4-22.5-16.7-28.9C145.2,68,132.7,83.8,132.7,83.8z"/>
				</defs>
				<linearGradient id="SVGID_2_" gradientUnits="userSpaceOnUse" x1="85.1319" y1="158.7606" x2="169.6632" y2="96.5583">
					<stop  offset="0" style="stop-color:#F06257"/>
					<stop  offset="2.320000e-02" style="stop-color:#F06257"/>
					<stop  offset="0.4716" style="stop-color:#AB5E8A"/>
					<stop  offset="0.6023" style="stop-color:#935E95"/>
					<stop  offset="0.8777" style="stop-color:#5661AB"/>
					<stop  offset="0.9829" style="stop-color:#4361AC"/>
					<stop  offset="1" style="stop-color:#4361AC"/>
				</linearGradient>
				<use xlink:href="#SVGID_1_"  style="overflow:visible;fill:url(#SVGID_2_);"/>
				<clipPath id="SVGID_3_">
					<use xlink:href="#SVGID_1_"  style="overflow:visible;"/>
				</clipPath>
			</g>
		</g>
	</g>
</g>
<g>
	<g>
		<g>
			<g>
				<defs>
					<path id="SVGID_4_" d="M81.2,84.8c-0.1,0.5-0.3,1-0.4,1.5c0,0.1,0,0.2-0.1,0.3c0,0.1-0.1,0.2-0.1,0.3h0
						c-2.2,12.4,5.8,24.5,18.2,27.1c12.7,2.7,25.1-5.4,27.8-18.1c0,0,0-0.1,0-0.1l0,0c3.2-14.9,17.8-24.5,32.7-21.3
						c14.1,3,23.4,16.3,21.7,30.4c3.9-26.5-13.4-51.7-40-57.3c-3.6-0.8-7.1-1.1-10.6-1.1C107.7,46.5,87,62,81.2,84.8"/>
				</defs>
				<linearGradient id="SVGID_5_" gradientUnits="userSpaceOnUse" x1="80.2753" y1="80.586" x2="181.6834" y2="80.586">
					<stop  offset="0" style="stop-color:#22B473"/>
					<stop  offset="0.134" style="stop-color:#1EB479"/>
					<stop  offset="0.3203" style="stop-color:#1CB38A"/>
					<stop  offset="0.5373" style="stop-color:#1DB2A8"/>
					<stop  offset="0.7755" style="stop-color:#1AB0D0"/>
					<stop  offset="1" style="stop-color:#4AA7DD"/>
				</linearGradient>
				<use xlink:href="#SVGID_4_"  style="overflow:visible;fill:url(#SVGID_5_);"/>
				<clipPath id="SVGID_6_">
					<use xlink:href="#SVGID_4_"  style="overflow:visible;"/>
				</clipPath>
			</g>
		</g>
	</g>
</g>
<g>
	<g>
		<g>
			<g>
				<defs>
					<path id="SVGID_7_" d="M49.6,13.2c-8,5.2-13.1,12.5-13.1,12.5c-26.3,31.5-37,78.3-7.3,114.4c31.1,37.8,90.6,45.9,130.8,10
						c-21.7,18.6-52.7,19.8-75.9,4.6c-14.8-9.7-36.9-34.7-26.5-66.8c5.8-17.9,17.2-28,24.7-37.5c4.6-4.5,7.5-10.8,7.5-17.8
						C89.7,19,78.6,7.9,64.9,7.9C59.1,7.9,53.8,9.9,49.6,13.2"/>
				</defs>
				<linearGradient id="SVGID_8_" gradientUnits="userSpaceOnUse" x1="67.4867" y1="36.4312" x2="96.1587" y2="175.809">
					<stop  offset="0" style="stop-color:#F16C73"/>
					<stop  offset="0.1533" style="stop-color:#F2726D"/>
					<stop  offset="0.3659" style="stop-color:#F37D5B"/>
					<stop  offset="0.6132" style="stop-color:#F5933C"/>
					<stop  offset="0.8846" style="stop-color:#EDB01E"/>
					<stop  offset="1" style="stop-color:#EABE1D"/>
				</linearGradient>
				<use xlink:href="#SVGID_7_"  style="overflow:visible;fill:url(#SVGID_8_);"/>
				<clipPath id="SVGID_9_">
					<use xlink:href="#SVGID_7_"  style="overflow:visible;"/>
				</clipPath>
			</g>
		</g>
	</g>
</g>
<radialGradient id="SVGID_10_" cx="115.2729" cy="22.5823" r="20.904" gradientUnits="userSpaceOnUse">
	<stop  offset="0" style="stop-color:#F16C73"/>
	<stop  offset="0.1533" style="stop-color:#F2726D"/>
	<stop  offset="0.3659" style="stop-color:#F37D5B"/>
	<stop  offset="0.6132" style="stop-color:#F5933C"/>
	<stop  offset="0.8846" style="stop-color:#EDB01E"/>
	<stop  offset="1" style="stop-color:#EABE1D"/>
</radialGradient>
<path class="st0" d="M115.3,1.7c0.7,0,1.3,0.5,1.5,1.3c0.9,2.9,1.9,5.8,2.8,8.7c0.5,1.5,1,2.9,1.4,4.4c0.1,0.3,0.3,0.5,0.6,0.6
	c4.3,1.4,8.6,2.8,12.9,4.1c1.1,0.4,1.6,0.9,1.6,1.7c0,0.8-0.5,1.3-1.6,1.7c-4.3,1.4-8.5,2.8-12.8,4.1c-0.4,0.1-0.6,0.3-0.7,0.7
	c-1.4,4.4-2.8,8.7-4.2,13c-0.4,1.3-1.8,1.8-2.7,0.8c-0.2-0.2-0.4-0.6-0.5-0.9c-1.4-4.3-2.8-8.7-4.2-13c-0.1-0.4-0.3-0.6-0.7-0.7
	c-4.4-1.4-8.7-2.8-13-4.2c-0.9-0.3-1.4-0.8-1.4-1.6c0-0.8,0.5-1.3,1.3-1.6c4.4-1.4,8.7-2.8,13.1-4.2c0.4-0.1,0.5-0.3,0.6-0.7
	c1.4-4.4,2.8-8.7,4.2-13.1C114,2.1,114.5,1.6,115.3,1.7z"/>
<radialGradient id="SVGID_11_" cx="81.9528" cy="126.4097" r="14.7326" gradientUnits="userSpaceOnUse">
	<stop  offset="0" style="stop-color:#F06257"/>
	<stop  offset="2.320000e-02" style="stop-color:#F06257"/>
	<stop  offset="0.4716" style="stop-color:#AB5E8A"/>
	<stop  offset="0.6023" style="stop-color:#935E95"/>
	<stop  offset="0.8777" style="stop-color:#5661AB"/>
	<stop  offset="0.9829" style="stop-color:#4361AC"/>
	<stop  offset="1" style="stop-color:#4361AC"/>
</radialGradient>
<path class="st1" d="M82,111.7c0.5,0,0.9,0.3,1.1,0.9c0.7,2,1.3,4.1,2,6.1c0.3,1,0.7,2.1,1,3.1c0.1,0.2,0.2,0.4,0.4,0.4
	c3,1,6,1.9,9.1,2.9c0.8,0.3,1.1,0.6,1.1,1.2c0,0.6-0.3,0.9-1.1,1.2c-3,1-6,1.9-9,2.9c-0.3,0.1-0.4,0.2-0.5,0.5c-1,3.1-2,6.1-3,9.2
	c-0.3,0.9-1.3,1.2-1.9,0.6c-0.2-0.2-0.3-0.4-0.3-0.6c-1-3.1-2-6.1-3-9.2c-0.1-0.3-0.2-0.4-0.5-0.5c-3.1-1-6.1-2-9.2-3
	c-0.6-0.2-1-0.6-1-1.1c0-0.5,0.3-0.9,0.9-1.1c3.1-1,6.1-2,9.2-3c0.3-0.1,0.4-0.2,0.5-0.5c1-3.1,2-6.2,3-9.2
	C81,112,81.4,111.7,82,111.7z"/>
<g class="st2">
	<g>
		<g>
			<g>
				<g>
					<defs>
						<rect id="SVGID_12_" x="80" y="46.7" width="101.4" height="68.1"/>
					</defs>
					<clipPath id="SVGID_13_">
						<use xlink:href="#SVGID_12_"  style="overflow:visible;"/>
					</clipPath>
				</g>
			</g>
		</g>
		<g>
			<g>
				<g>
					<defs>
						<rect id="SVGID_14_" x="80" y="46.7" width="101.4" height="68.1"/>
					</defs>
					<clipPath id="SVGID_15_">
						<use xlink:href="#SVGID_14_"  style="overflow:visible;"/>
					</clipPath>
					<path class="st3" d="M80.8,85c-0.1,0.5-0.3,1-0.4,1.5c0,0.1,0,0.2-0.1,0.3c0,0.1-0.1,0.2-0.1,0.3l0,0
						c-2.2,12.4,5.8,24.5,18.2,27.1c4,0.9,8.1,0.6,11.8-0.5c-0.8,0-1.5-0.1-2.3-0.2c-11.2-1.8-18.9-12.1-17.5-23.3l0,0
						c0-0.1,0-0.2,0.1-0.3c0-0.1,0-0.2,0-0.3c0.1-0.5,0.2-0.9,0.3-1.4c4.8-23.7,27.6-39.7,51.7-35.9c23.3,3.7,39.7,24.5,38.3,47.5
						c0.1,1.7,0.1,3.4-0.1,5.2c3.9-26.5-13.4-51.7-40-57.3C114,42.1,87.6,58.7,80.8,85"/>
				</g>
			</g>
		</g>
	</g>
</g>
<radialGradient id="SVGID_16_" cx="42.5142" cy="63.8017" r="17.1493" gradientUnits="userSpaceOnUse">
	<stop  offset="0" style="stop-color:#F1ED73"/>
	<stop  offset="1" style="stop-color:#EABE1D"/>
</radialGradient>
<path class="st4" d="M42.6,46.7c0.6,0,1,0.4,1.3,1.1c0.8,2.4,1.5,4.8,2.3,7.1c0.4,1.2,0.8,2.4,1.2,3.6c0.1,0.3,0.2,0.4,0.5,0.5
	c3.5,1.1,7,2.3,10.5,3.4c0.9,0.3,1.3,0.7,1.3,1.4c0,0.7-0.4,1.1-1.3,1.4c-3.5,1.1-7,2.3-10.5,3.4c-0.3,0.1-0.5,0.3-0.6,0.6
	c-1.1,3.6-2.3,7.1-3.5,10.7c-0.4,1.1-1.5,1.5-2.2,0.7c-0.2-0.2-0.3-0.5-0.4-0.7c-1.2-3.6-2.3-7.1-3.5-10.7c-0.1-0.3-0.2-0.5-0.6-0.6
	c-3.6-1.1-7.1-2.3-10.7-3.4c-0.7-0.2-1.1-0.7-1.1-1.3c0-0.6,0.4-1.1,1.1-1.3c3.6-1.2,7.2-2.3,10.7-3.5c0.3-0.1,0.4-0.3,0.5-0.5
	c1.1-3.6,2.3-7.2,3.5-10.7C41.4,47,41.9,46.6,42.6,46.7z"/>
</svg>
